# xmcd
#
# Track frame offsets:
#	150
#	22705
#	38502
#	55567
#	75375
#	98987
#	119150
#	139890
#	157345
#	177407
#	191627
#
# Disc length: 2829 seconds
#
# Revision: 0
# Processed by: cddbd v1.4PL0 Copyright (c) Steve Scherf et al.
# Submitted via: dBpowerAMP V4.0
#
DISCID=8c0b0b0b
DTITLE=Various Artist - Sepanjang musim
DYEAR=2003
DGENRE=Pop
TTITLE0=/ Track 1 - jikustik
TTITLE1=/ Track 2 - Various Artists
TTITLE2=/ Track 3 - Various Artists
TTITLE3=/ Track 4 - Various Artists
TTITLE4=jikustik - Track 5 - Various Artists
TTITLE5=/ Track 6 - Various Artists
TTITLE6=/ Track 7 - Various Artists
TTITLE7=/ Track 8 - Various Artists
TTITLE8=/ Track 9 - Various Artists
TTITLE9=/ Track 10 - Various Artists
TTITLE10=/ Track 11 - Various Artists
EXTD=
EXTT0=
EXTT1=
EXTT2=
EXTT3=
EXTT4=
EXTT5=
EXTT6=
EXTT7=
EXTT8=
EXTT9=
EXTT10=
PLAYORDER=
